<svg width="23" height="16" viewBox="0 0 23 16" fill="none" xmlns="http://www.w3.org/2000/svg">
<path d="M9.36356 0.549159C9.64607 0.831663 9.78167 1.17302 9.77037 1.57324C9.75813 1.97345 9.61076 2.31481 9.32825 2.59731L5.33788 6.58768L21.0875 6.58768C21.4877 6.58768 21.8234 6.72328 22.0946 6.99449C22.3649 7.26475 22.5 7.59999 22.5 8.0002C22.5 8.40042 22.3649 8.73612 22.0946 9.00733C21.8234 9.27759 21.4877 9.41272 21.0875 9.41272H5.33788L9.36356 13.4384C9.64607 13.7209 9.78732 14.0566 9.78732 14.4455C9.78732 14.8335 9.64607 15.1687 9.36356 15.4512C9.08106 15.7337 8.74535 15.875 8.35644 15.875C7.96847 15.875 7.63323 15.7337 7.35072 15.4512L0.888446 8.98897C0.747194 8.84771 0.646903 8.69469 0.587577 8.5299C0.529193 8.3651 0.500001 8.18854 0.500001 8.0002C0.500001 7.81187 0.529193 7.6353 0.587577 7.47051C0.646903 7.30571 0.747194 7.15269 0.888446 7.01144L7.38604 0.513847C7.645 0.254886 7.96847 0.125401 8.35644 0.125401C8.74535 0.125401 9.08106 0.266655 9.36356 0.549159Z" fill="#8C8C8C"/>
</svg>
