<svg width="23" height="16" viewBox="0 0 23 16" fill="none" xmlns="http://www.w3.org/2000/svg">
<path d="M13.6364 15.4508C13.3539 15.1683 13.2183 14.827 13.2296 14.4268C13.2419 14.0265 13.3892 13.6852 13.6717 13.4027L17.6621 9.41232H1.91252C1.51231 9.41232 1.1766 9.27672 0.905394 9.00551C0.635131 8.73525 0.5 8.40001 0.5 7.9998C0.5 7.59958 0.635131 7.26388 0.905394 6.99267C1.1766 6.72241 1.51231 6.58728 1.91252 6.58728H17.6621L13.6364 2.5616C13.3539 2.27909 13.2127 1.94338 13.2127 1.55447C13.2127 1.1665 13.3539 0.83126 13.6364 0.548756C13.9189 0.266252 14.2546 0.125 14.6436 0.125C15.0315 0.125 15.3668 0.266252 15.6493 0.548756L22.1116 7.01103C22.2528 7.15229 22.3531 7.30531 22.4124 7.4701C22.4708 7.6349 22.5 7.81146 22.5 7.9998C22.5 8.18814 22.4708 8.3647 22.4124 8.52949C22.3531 8.69429 22.2528 8.84731 22.1116 8.98856L15.614 15.4862C15.355 15.7451 15.0315 15.8746 14.6436 15.8746C14.2546 15.8746 13.9189 15.7333 13.6364 15.4508Z" fill="#8C8C8C"/>
</svg>
