<svg width="18" height="14" viewBox="0 0 18 14" fill="none" xmlns="http://www.w3.org/2000/svg">
<path d="M16.2902 2.98141C15.7546 3.24966 15.219 3.33908 14.5942 3.4285C15.219 3.07083 15.6653 2.53432 15.8439 1.81897C15.3083 2.17664 14.6834 2.35548 13.9693 2.53432C13.4337 1.99781 12.6303 1.64014 11.8269 1.64014C10.3094 1.64014 8.97047 2.98141 8.97047 4.59093C8.97047 4.85919 8.97047 5.03802 9.05973 5.21686C6.64958 5.12744 4.41796 3.96501 2.98973 2.17664C2.72193 2.62373 2.63267 3.07083 2.63267 3.69675C2.63267 4.68035 3.16826 5.57453 3.97164 6.11104C3.52531 6.11104 3.07899 5.9322 2.63267 5.75337C2.63267 7.18405 3.61458 8.34649 4.95355 8.61474C4.68576 8.70416 4.41796 8.70416 4.15017 8.70416C3.97164 8.70416 3.79311 8.70416 3.61458 8.61474C3.97164 9.77718 5.04282 10.6714 6.38179 10.6714C5.39988 11.4761 4.15017 11.9232 2.72193 11.9232C2.45414 11.9232 2.27561 11.9232 2.00781 11.9232C3.34678 12.728 4.86429 13.2645 6.47105 13.2645C11.8269 13.2645 14.7727 8.79358 14.7727 4.9486C14.7727 4.85919 14.7727 4.68035 14.7727 4.59093C15.3975 4.14384 15.9331 3.60733 16.2902 2.98141Z" fill="white" stroke="white"/>
</svg>
